<?xml version="1.0" standalone="no"?>
<!DOCTYPE svg PUBLIC "-//W3C//DTD SVG 20010904//EN"
 "http://www.w3.org/TR/2001/REC-SVG-20010904/DTD/svg10.dtd">
<svg version="1.0" xmlns="http://www.w3.org/2000/svg"
 width="500.000000pt" height="500.000000pt" viewBox="0 0 500.000000 500.000000"
 preserveAspectRatio="xMidYMid meet">
<metadata>
Created by potrace 1.11, written by Peter Selinger 2001-2013
</metadata>
<g transform="translate(0.000000,500.000000) scale(0.100000,-0.100000)"
fill="#000000" stroke="none">
<path d="M0 2500 l0 -2500 2500 0 2500 0 0 2500 0 2500 -2500 0 -2500 0 0
-2500z m2910 1270 c46 -23 48 -30 19 -56 -16 -15 -24 -16 -39 -6 -29 18 -65
15 -85 -8 -22 -24 -75 -27 -75 -4 0 18 17 52 38 77 21 24 92 22 142 -3z m67
-110 c-15 -13 -26 -15 -34 -8 -10 8 -7 14 10 28 15 13 26 15 34 8 10 -8 7 -14
-10 -28z m-199 -37 c2 -9 -7 -13 -27 -13 -21 0 -31 5 -31 16 0 19 51 16 58 -3z
m255 -7 c4 -10 -4 -18 -24 -25 -23 -8 -29 -7 -29 4 0 13 25 34 41 35 4 0 9 -6
12 -14z m-108 -6 c3 -5 -1 -10 -9 -10 -8 0 -18 5 -21 10 -3 6 1 10 9 10 8 0
18 -4 21 -10z m-86 -42 c-7 -13 -14 -18 -16 -11 -3 7 1 22 8 35 7 13 14 18 16
11 3 -7 -1 -22 -8 -35z m799 -14 c29 -20 52 -66 52 -104 0 -25 -4 -30 -25 -30
-17 0 -28 7 -34 23 -14 36 -47 60 -75 55 -19 -4 -30 1 -42 19 -8 14 -14 26
-12 27 35 29 102 34 136 10z m-858 -9 c0 -10 -10 -15 -30 -15 -20 0 -30 5 -30
15 0 10 10 15 30 15 20 0 30 -5 30 -15z m180 -6 c0 -10 -12 -11 -34 -3 -25 10
-19 22 9 16 14 -2 25 -8 25 -13z m99 -3 c-2 -2 -16 -7 -32 -11 -33 -9 -38 12
-4 24 20 8 47 -2 36 -13z m-196 -32 c-9 -15 -19 -21 -21 -15 -4 13 16 41 29
41 5 0 2 -12 -8 -26z m629 -46 c-7 -7 -17 -4 -33 10 -18 18 -20 24 -9 37 11
13 15 12 32 -11 14 -18 17 -29 10 -36z m-692 18 c0 -19 -39 -31 -53 -17 -9 9
-8 14 3 21 22 14 50 12 50 -4z m179 -2 c2 -2 2 -7 -2 -10 -8 -9 -47 6 -47 17
0 9 37 3 49 -7z m91 1 c0 -8 -9 -15 -20 -15 -11 0 -23 0 -27 -1 -4 0 -9 4 -11
9 -3 9 6 13 51 21 4 0 7 -6 7 -14z m-170 -14 c0 -5 -7 -14 -15 -21 -16 -14
-18 -10 -9 14 6 17 24 22 24 7z m-1326 -23 c31 -48 54 -221 81 -618 9 -124 20
-254 24 -290 5 -41 5 -70 -2 -77 -6 -9 -6 -13 1 -13 6 0 11 -25 11 -57 0 -98
81 -564 101 -586 4 -5 10 36 14 90 15 214 35 365 51 389 10 16 25 24 45 24 16
0 32 5 35 10 10 16 23 12 30 -9 3 -10 -2 -117 -11 -237 -8 -121 -17 -313 -19
-429 -1 -115 -3 -218 -4 -227 -2 -33 -52 -77 -106 -94 l-53 -17 -49 28 c-57
33 -290 265 -318 317 -18 36 -18 38 -1 57 10 11 32 24 48 30 30 11 33 9 147
-105 63 -64 117 -111 119 -105 2 6 -8 46 -22 88 -94 286 -145 640 -197 1378
-6 94 -15 174 -19 178 -10 11 -39 -113 -89 -383 -46 -246 -56 -327 -72 -570
-12 -186 -18 -209 -67 -234 -110 -56 -138 -20 -181 236 -30 177 -61 545 -61
725 0 40 -4 73 -8 73 -5 0 -17 -38 -27 -85 -10 -47 -21 -85 -25 -85 -4 0 -10
-15 -13 -32 -3 -18 -15 -76 -27 -128 -11 -52 -23 -140 -25 -195 -2 -55 -11
-165 -18 -244 -14 -136 -16 -146 -41 -168 -34 -29 -86 -31 -86 -4 0 62 23 343
36 440 29 221 119 600 186 791 30 84 38 97 68 112 19 10 52 18 72 18 l36 0 6
-62 c3 -35 12 -223 21 -419 18 -409 25 -502 36 -472 4 11 10 47 13 79 15 138
44 260 46 194 1 -14 23 84 50 218 27 133 59 279 71 323 23 84 58 139 89 139
10 0 31 7 46 15 38 19 41 19 58 -7z m1869 -34 c-4 -10 -10 -11 -23 -4 -25 14
-33 28 -26 47 6 14 10 13 31 -7 13 -12 21 -28 18 -36z m-623 -14 c-18 -13 -28
-16 -37 -8 -19 16 -16 23 15 34 39 15 53 -2 22 -26z m160 9 c0 -4 -7 -6 -15
-3 -8 4 -15 10 -15 15 0 4 7 6 15 3 8 -4 15 -10 15 -15z m-68 -11 c-7 -7 -12
-8 -12 -2 0 6 3 14 7 17 3 4 9 5 12 2 2 -3 -1 -11 -7 -17z m168 -7 c0 -16 -5
-18 -27 -12 -39 10 -41 31 -4 31 24 0 31 -4 31 -19z m445 9 c-3 -5 -15 -10
-26 -10 -11 0 -17 5 -14 10 3 6 15 10 26 10 11 0 17 -4 14 -10z m-115 -41 c0
-16 -19 -19 -44 -8 -20 10 -23 15 -13 29 10 16 13 17 34 3 13 -8 23 -19 23
-24z m177 16 c8 -22 -6 -33 -17 -15 -13 20 -12 30 0 30 6 0 13 -7 17 -15z m77
9 c27 -10 19 -32 -9 -26 -14 2 -25 11 -25 18 0 15 10 17 34 8z m-779 -13 c3
-5 -6 -21 -19 -34 -22 -22 -27 -23 -38 -10 -10 12 -8 18 12 34 28 21 36 23 45
10z m611 -30 c-7 -11 -56 -21 -56 -10 0 4 12 10 28 12 15 2 28 5 30 6 2 0 1
-3 -2 -8z m63 -61 c0 -11 -3 -10 -14 4 -8 11 -15 29 -15 40 1 19 2 19 15 -4 8
-14 14 -32 14 -40z m-194 28 c38 -17 33 -39 -7 -31 -41 7 -40 7 -32 27 7 19 6
19 39 4z m305 -13 c0 -16 -17 -19 -44 -9 -26 10 -18 24 14 24 20 0 30 -5 30
-15z m-210 -19 c0 -2 -9 -6 -20 -9 -11 -3 -20 -1 -20 4 0 5 9 9 20 9 11 0 20
-2 20 -4z m64 -57 c-4 -8 -11 -3 -20 12 -16 31 -6 47 13 20 8 -12 11 -26 7
-32z m106 21 c11 -7 12 -12 3 -21 -12 -12 -53 4 -53 21 0 13 30 13 50 0z
m-250 -25 c0 -10 -11 -15 -35 -15 -24 0 -35 5 -35 15 0 10 11 15 35 15 24 0
35 -5 35 -15z m-280 -10 c0 -10 -10 -15 -30 -15 -20 0 -30 5 -30 15 0 10 10
15 30 15 20 0 30 -5 30 -15z m-182 -12 c-4 -23 -48 -31 -48 -9 0 13 14 21 43
25 5 0 7 -7 5 -16z m562 -21 c0 -15 -2 -15 -10 -2 -13 20 -13 33 0 25 6 -3 10
-14 10 -23z m119 -18 c-10 -13 -15 -12 -33 3 -12 10 -23 19 -25 20 -1 1 0 6 4
12 4 7 16 6 36 -5 25 -12 28 -18 18 -30z m-735 1 c20 -14 45 -25 54 -25 14 0
15 -2 2 -10 -12 -8 -12 -11 3 -28 9 -10 17 -26 17 -34 0 -23 55 -33 83 -15 16
10 30 11 50 5 15 -5 27 -13 27 -17 0 -20 -42 -42 -89 -48 l-51 -6 0 -61 c-1
-71 -17 -122 -54 -171 -26 -34 -27 -37 -24 -162 3 -121 4 -128 24 -131 12 -2
38 13 66 37 37 33 46 48 51 86 21 147 156 245 255 185 33 -20 72 -74 72 -100
1 -35 15 -42 63 -30 37 10 50 20 72 54 85 135 246 121 286 -26 10 -38 12 -39
42 -32 18 3 35 8 38 10 3 2 9 79 12 171 7 186 22 326 39 356 8 16 17 18 49 14
54 -7 94 -39 124 -101 50 -102 46 -217 -10 -311 l-35 -57 0 -129 c0 -144 2
-148 66 -109 34 21 102 97 123 138 12 23 41 31 41 11 0 -21 -102 -158 -154
-207 -58 -55 -122 -92 -160 -92 -45 0 -71 61 -82 191 l-7 77 -41 -14 c-37 -13
-43 -20 -53 -57 -24 -88 -126 -166 -199 -152 -70 13 -123 89 -124 177 l0 47
-43 -15 c-38 -13 -44 -19 -54 -57 -24 -89 -126 -166 -200 -152 -41 7 -87 45
-103 86 l-13 30 -61 -59 c-90 -88 -175 -124 -206 -87 -21 25 -39 103 -46 195
-8 101 -10 104 -97 103 -79 -1 -84 -15 -31 -88 62 -87 114 -191 114 -226 0
-65 -50 -112 -134 -126 -68 -11 -155 39 -182 104 -19 44 -18 134 2 183 14 34
14 46 5 67 -12 27 -12 27 -48 -38 -45 -83 -105 -145 -168 -175 -112 -53 -175
-13 -175 111 l0 56 -30 -21 c-95 -68 -200 -40 -200 52 0 95 86 168 200 168
l50 0 0 35 0 35 50 0 c41 0 55 -5 82 -29 l33 -30 -3 -111 c-3 -118 10 -190 33
-190 18 0 75 68 110 131 l27 51 -17 58 c-19 64 -16 93 16 134 17 21 86 66 102
66 2 0 4 -20 4 -44 1 -25 12 -67 28 -100 26 -56 28 -57 58 -49 40 10 104 10
138 1 l26 -8 7 148 c9 201 25 333 42 360 19 30 61 29 108 -3z m234 -12 c-10
-2 -26 -2 -35 0 -10 3 -2 5 17 5 19 0 27 -2 18 -5z m441 -59 c-14 -14 -18 -13
-33 11 -10 15 -15 34 -11 43 5 13 10 12 33 -11 24 -24 25 -28 11 -43z m-425 6
c-7 -7 -19 -7 -35 -1 -23 9 -22 10 11 10 23 1 31 -2 24 -9z m160 -9 c21 -23 6
-37 -24 -21 -21 11 -25 22 -13 33 10 11 19 8 37 -12z m-36 -71 c3 -8 -5 -7
-26 6 -17 10 -28 22 -26 26 7 11 46 -13 52 -32z m-32 -37 c-7 -8 -56 9 -51 18
3 4 17 3 30 -3 14 -6 23 -13 21 -15z m218 -11 c2 -4 1 -14 -4 -22 -8 -13 -13
-12 -31 6 -25 26 -18 49 11 34 10 -6 21 -14 24 -18z m-206 -62 c17 -16 37 -30
45 -30 7 0 19 -11 25 -25 11 -24 10 -25 -24 -25 -45 0 -92 32 -110 76 -8 18
-14 36 -14 40 0 15 51 -8 78 -36z m166 -12 c-4 -5 -17 0 -30 13 -13 12 -21 26
-18 31 4 5 17 0 30 -13 13 -12 21 -26 18 -31z m-40 -40 c-3 -5 -7 -8 -8 -6 -1
2 -10 17 -20 33 l-19 30 26 -24 c15 -13 24 -28 21 -33z m-986 -814 c63 -71
-28 -173 -105 -119 -31 21 -40 78 -19 111 33 49 83 52 124 8z m-238 -34 c24
-33 45 -60 46 -60 1 0 0 27 -3 60 -5 51 -3 60 11 60 13 0 16 -13 16 -80 0 -99
-10 -102 -70 -20 -24 33 -45 60 -47 60 -1 0 0 -27 4 -60 5 -52 4 -60 -11 -60
-13 0 -16 12 -16 80 0 99 10 102 70 20z m460 50 c0 -5 -9 -10 -20 -10 -18 0
-20 -7 -20 -70 0 -56 -3 -70 -15 -70 -12 0 -15 14 -15 70 0 63 -2 70 -20 70
-11 0 -20 5 -20 10 0 6 25 10 55 10 30 0 55 -4 55 -10z m146 -15 c15 -23 15
-27 0 -50 -15 -23 -15 -28 -1 -55 14 -26 14 -30 1 -30 -9 0 -22 14 -31 30 -9
18 -23 30 -35 30 -16 0 -20 -7 -20 -30 0 -16 -4 -30 -10 -30 -6 0 -10 33 -10
80 l0 80 45 0 c36 0 47 -4 61 -25z m149 -38 c36 -88 38 -97 22 -97 -8 0 -17 9
-20 20 -4 15 -14 20 -40 20 -27 0 -37 -5 -42 -20 -3 -11 -13 -20 -21 -20 -11
0 -10 10 7 53 12 28 26 65 31 80 15 42 37 30 63 -36z m135 53 c0 -5 -4 -10
-10 -10 -6 0 -10 -27 -10 -60 0 -33 4 -60 10 -60 6 0 10 -4 10 -10 0 -5 -18
-10 -40 -10 -22 0 -40 5 -40 10 0 6 7 10 15 10 12 0 15 13 15 60 0 47 -3 60
-15 60 -8 0 -15 5 -15 10 0 6 18 10 40 10 22 0 40 -4 40 -10z m70 -60 l0 -70
35 0 c19 0 35 -4 35 -10 0 -5 -22 -10 -50 -10 l-50 0 0 80 c0 64 3 80 15 80
12 0 15 -14 15 -70z m200 16 c0 -36 5 -60 16 -70 18 -19 20 -19 45 -6 15 9 19
22 19 70 0 47 3 60 15 60 11 0 15 -12 15 -51 0 -74 -22 -109 -69 -109 -44 0
-61 26 -61 97 0 35 4 63 10 63 6 0 10 -24 10 -54z m215 -2 l40 -56 3 56 c2 41
7 56 17 56 12 0 15 -17 15 -80 0 -100 -11 -103 -74 -18 l-46 62 0 -62 c0 -35
-4 -62 -10 -62 -6 0 -10 33 -10 80 0 98 10 101 65 24z m225 46 c0 -5 -11 -10
-25 -10 -24 0 -25 -2 -25 -70 0 -56 -3 -70 -15 -70 -12 0 -15 14 -15 70 0 63
-2 70 -20 70 -11 0 -20 5 -20 10 0 6 27 10 60 10 33 0 60 -4 60 -10z m50 -44
c0 -36 5 -60 16 -70 18 -19 20 -19 45 -6 15 9 19 22 19 70 0 47 3 60 15 60 11
0 15 -12 15 -51 0 -74 -22 -109 -69 -109 -44 0 -61 26 -61 97 0 35 4 63 10 63
6 0 10 -24 10 -54z m258 42 c17 -17 15 -53 -3 -68 -13 -11 -13 -15 0 -41 18
-35 19 -39 1 -39 -7 0 -19 14 -26 30 -8 18 -20 30 -31 30 -14 0 -19 -7 -19
-30 0 -20 -5 -30 -15 -30 -12 0 -15 16 -15 80 l0 80 48 0 c26 0 53 -5 60 -12z
m126 -50 l46 -62 0 62 c0 35 4 62 10 62 6 0 10 -33 10 -80 0 -98 -10 -101 -65
-24 l-40 56 -3 -56 c-2 -41 -7 -56 -17 -56 -12 0 -15 17 -15 80 0 100 11 103
74 18z m216 52 c0 -5 -18 -10 -40 -10 -33 0 -40 -3 -40 -19 0 -15 8 -21 32
-23 46 -4 49 -28 3 -28 -32 0 -36 -3 -33 -22 2 -19 10 -24 41 -26 55 -5 45
-22 -13 -22 l-50 0 0 80 0 80 50 0 c28 0 50 -4 50 -10z m159 -16 c48 -62 8
-134 -74 -134 l-45 0 0 80 0 80 49 0 c42 0 53 -4 70 -26z"/>
<path d="M1027 2960 c3 -80 9 -172 14 -205 5 -41 6 -8 3 100 -3 88 -9 180 -14
205 -6 30 -7 -2 -3 -100z"/>
<path d="M1146 2693 c9 -38 14 -42 14 -10 0 14 -5 29 -10 32 -7 4 -8 -3 -4
-22z"/>
<path d="M1252 2700 c0 -14 2 -19 5 -12 2 6 2 18 0 25 -3 6 -5 1 -5 -13z"/>
<path d="M1048 2623 c6 -81 18 -87 14 -8 -2 36 -7 65 -11 65 -4 0 -6 -26 -3
-57z"/>
<path d="M1152 2620 c0 -19 2 -27 5 -17 2 9 2 25 0 35 -3 9 -5 1 -5 -18z"/>
<path d="M2897 2950 c-4 -30 -7 -84 -7 -120 1 -65 1 -65 16 -36 23 42 29 134
12 176 l-15 35 -6 -55z"/>
<path d="M4046 2969 c-3 -19 -7 -72 -10 -119 -4 -76 -3 -83 10 -65 23 32 36
94 29 144 -9 66 -22 84 -29 40z"/>
<path d="M3252 2653 c-21 -8 16 -43 46 -43 23 0 24 1 10 23 -16 23 -34 29 -56
20z"/>
<path d="M3672 2653 c-21 -8 16 -43 46 -43 23 0 24 1 10 23 -16 23 -34 29 -56
20z"/>
<path d="M1934 2620 c-26 -10 -54 -48 -54 -71 0 -24 26 -42 50 -34 40 13 80
55 80 86 0 25 -4 29 -27 28 -16 0 -38 -4 -49 -9z"/>
<path d="M3186 2562 c-14 -23 -18 -94 -6 -122 25 -62 98 -24 127 65 10 30 9
30 -36 41 -25 6 -53 14 -62 18 -10 4 -20 3 -23 -2z"/>
<path d="M3606 2562 c-14 -23 -18 -94 -6 -122 25 -62 98 -24 127 65 10 30 9
30 -36 41 -25 6 -53 14 -62 18 -10 4 -20 3 -23 -2z"/>
<path d="M2424 2434 c-12 -67 1 -126 36 -157 17 -15 39 -27 48 -25 21 4 27 49
13 91 -13 35 -72 126 -83 127 -4 0 -10 -16 -14 -36z"/>
<path d="M2266 2014 c-33 -32 -8 -104 36 -104 43 0 67 89 29 110 -27 14 -47
13 -65 -6z"/>
<path d="M2640 2005 c0 -24 3 -26 33 -23 24 2 32 8 32 23 0 15 -8 21 -32 23
-30 3 -33 1 -33 -23z"/>
<path d="M2827 2000 c-10 -38 -8 -50 7 -50 22 0 25 12 12 45 l-12 30 -7 -25z"/>
<path d="M3950 2006 c0 -22 4 -26 31 -26 26 0 30 3 27 23 -2 16 -11 23 -30 25
-24 3 -28 0 -28 -22z"/>
<path d="M4440 1969 l0 -61 32 6 c38 8 48 20 48 63 0 34 -21 53 -59 53 -19 0
-21 -6 -21 -61z"/>
</g>
</svg>
